<svg width="100%" height="100%" viewBox="0 0 1440 1164" fill="none" xmlns="http://www.w3.org/2000/svg">
<g clip-path="url(#clip0)">
<path fill-rule="evenodd" clip-rule="evenodd" d="M327.334 0H1304.68L1068.43 486.219L278.391 100.891L327.334 0Z" fill="url(#paint0_linear)"/>
<path fill-rule="evenodd" clip-rule="evenodd" d="M1440.3 334.587H545.768C545.768 334.587 538.232 312.552 545.768 311.429C756.761 280 795.42 210.988 838.534 198.123C881.647 185.258 1011.4 160.629 1034.31 146.842C1067.83 126.681 1147.68 36.5316 1169.29 28.7348C1177.89 25.635 1231.98 0 1231.98 0H1440.3V334.587Z" fill="url(#paint1_linear)"/>
<path fill-rule="evenodd" clip-rule="evenodd" d="M1440.3 448.294H667.815C667.815 448.294 660.185 424.747 667.815 423.548C881.454 389.96 1148.5 194.63 1171.25 194.63C1194 194.63 1273.73 136.956 1296.94 122.223C1330.87 100.678 1381.49 47.6874 1403.37 39.3553C1414.97 34.939 1440.3 38.8034 1440.3 38.8034V448.294Z" fill="url(#paint2_linear)"/>
<g filter="url(#filter0_d)">
<path fill-rule="evenodd" clip-rule="evenodd" d="M0 710.3H1440V489.534C1440 489.534 1166.34 324.323 1103.81 335.068C999.239 353.04 665.624 233.462 619.406 203.225C560.778 164.869 352.853 0 352.853 0H0V710.3Z" fill="url(#paint3_linear)"/>
</g>
<g filter="url(#filter1_d)">
<path fill-rule="evenodd" clip-rule="evenodd" d="M1440 1118.1H0.531372L0.940674 755.184C0.940674 755.184 251.595 655.502 273.353 655.502C336.699 655.502 558.692 550.325 623.298 523.457C717.777 484.166 858.728 387.529 919.655 372.335C980.582 357.14 1033.98 389.308 1183.35 357.14C1216.68 349.963 1270.82 306.829 1334.5 286.783C1358.88 279.106 1440 260.945 1440 260.945V1118.1Z" fill="url(#paint4_linear)"/>
</g>
<g filter="url(#filter2_d)">
<path fill-rule="evenodd" clip-rule="evenodd" d="M1440.44 1163.97L1 1163.8V808.439C1 808.439 267.334 701.372 290.038 701.372C353.385 701.372 575.378 596.195 639.983 569.327C734.462 530.036 875.414 433.4 936.341 418.205C997.267 403.01 1050.67 435.178 1200.04 403.01C1233.36 395.833 1287.51 352.699 1351.18 332.653C1372.74 325.868 1442.86 310 1442.86 310L1440.44 1163.97Z" fill="url(#paint5_linear)"/>
</g>
<g filter="url(#filter3_d)">
<path fill-rule="evenodd" clip-rule="evenodd" d="M0.00630184 1164L1440 1164.33V1064C1440 1064 1348.1 1058.2 1304.83 1043.86C1181.28 1002.94 1087.53 954.083 1038.16 959.927C955.586 969.701 692.167 904.667 655.674 888.222C569.591 849.431 348.764 714.988 280.303 714.988C225.338 714.988 161.446 674.662 80.0218 642.952C49.4527 631.048 0.00630184 642.952 0.00630184 642.952V1164Z" fill="url(#paint6_linear)"/>
</g>
</g>
<defs>
<filter id="filter0_d" x="-15" y="-13" width="1470" height="740.3" filterUnits="userSpaceOnUse" color-interpolation-filters="sRGB">
<feFlood flood-opacity="0" result="BackgroundImageFix"/>
<feColorMatrix in="SourceAlpha" type="matrix" values="0 0 0 0 0 0 0 0 0 0 0 0 0 0 0 0 0 0 127 0" result="hardAlpha"/>
<feOffset dy="2"/>
<feGaussianBlur stdDeviation="7.5"/>
<feColorMatrix type="matrix" values="0 0 0 0 0.603922 0 0 0 0 0.368627 0 0 0 0 0.141176 0 0 0 0.087731 0"/>
<feBlend mode="normal" in2="BackgroundImageFix" result="effect1_dropShadow"/>
<feBlend mode="normal" in="SourceGraphic" in2="effect1_dropShadow" result="shape"/>
</filter>
<filter id="filter1_d" x="-14.4686" y="246.945" width="1469.47" height="887.155" filterUnits="userSpaceOnUse" color-interpolation-filters="sRGB">
<feFlood flood-opacity="0" result="BackgroundImageFix"/>
<feColorMatrix in="SourceAlpha" type="matrix" values="0 0 0 0 0 0 0 0 0 0 0 0 0 0 0 0 0 0 127 0" result="hardAlpha"/>
<feOffset dy="1"/>
<feGaussianBlur stdDeviation="7.5"/>
<feColorMatrix type="matrix" values="0 0 0 0 0.603922 0 0 0 0 0.368627 0 0 0 0 0.141176 0 0 0 0.0602541 0"/>
<feBlend mode="normal" in2="BackgroundImageFix" result="effect1_dropShadow"/>
<feBlend mode="normal" in="SourceGraphic" in2="effect1_dropShadow" result="shape"/>
</filter>
<filter id="filter2_d" x="-14" y="296" width="1471.86" height="883.97" filterUnits="userSpaceOnUse" color-interpolation-filters="sRGB">
<feFlood flood-opacity="0" result="BackgroundImageFix"/>
<feColorMatrix in="SourceAlpha" type="matrix" values="0 0 0 0 0 0 0 0 0 0 0 0 0 0 0 0 0 0 127 0" result="hardAlpha"/>
<feOffset dy="1"/>
<feGaussianBlur stdDeviation="7.5"/>
<feColorMatrix type="matrix" values="0 0 0 0 0.603922 0 0 0 0 0.368627 0 0 0 0 0.141176 0 0 0 0.0602541 0"/>
<feBlend mode="normal" in2="BackgroundImageFix" result="effect1_dropShadow"/>
<feBlend mode="normal" in="SourceGraphic" in2="effect1_dropShadow" result="shape"/>
</filter>
<filter id="filter3_d" x="-7.9937" y="628.661" width="1455.99" height="542.669" filterUnits="userSpaceOnUse" color-interpolation-filters="sRGB">
<feFlood flood-opacity="0" result="BackgroundImageFix"/>
<feColorMatrix in="SourceAlpha" type="matrix" values="0 0 0 0 0 0 0 0 0 0 0 0 0 0 0 0 0 0 127 0" result="hardAlpha"/>
<feOffset dy="-1"/>
<feGaussianBlur stdDeviation="4"/>
<feColorMatrix type="matrix" values="0 0 0 0 1 0 0 0 0 1 0 0 0 0 1 0 0 0 0.482295 0"/>
<feBlend mode="normal" in2="BackgroundImageFix" result="effect1_dropShadow"/>
<feBlend mode="normal" in="SourceGraphic" in2="effect1_dropShadow" result="shape"/>
</filter>
<linearGradient id="paint0_linear" x1="721" y1="69.5" x2="778.936" y2="278.173" gradientUnits="userSpaceOnUse">
<stop stop-color="#F9F0E7"/>
<stop offset="1" stop-color="#F2E4D3" stop-opacity="0.902191"/>
</linearGradient>
<linearGradient id="paint1_linear" x1="1077" y1="177.5" x2="1117.73" y2="243" gradientUnits="userSpaceOnUse">
<stop stop-color="#F9F0E7"/>
<stop offset="1" stop-color="#F2E4D3"/>
</linearGradient>
<linearGradient id="paint2_linear" x1="1065.5" y1="233.5" x2="1066.26" y2="431.018" gradientUnits="userSpaceOnUse">
<stop stop-color="#F9F0E7"/>
<stop offset="1" stop-color="#F2E4D3"/>
</linearGradient>
<linearGradient id="paint3_linear" x1="720" y1="744" x2="671.475" y2="262.426" gradientUnits="userSpaceOnUse">
<stop stop-color="#F9F0E7"/>
<stop offset="1" stop-color="#F2E4D3"/>
</linearGradient>
<linearGradient id="paint4_linear" x1="1067.41" y1="685.732" x2="1071.92" y2="1114.39" gradientUnits="userSpaceOnUse">
<stop stop-color="#F9F0E7"/>
<stop offset="1" stop-color="#F2E4D3"/>
</linearGradient>
<linearGradient id="paint5_linear" x1="711.494" y1="737.136" x2="681.197" y2="1136.94" gradientUnits="userSpaceOnUse">
<stop stop-color="#F9F0E7"/>
<stop offset="1" stop-color="#F2E4D3"/>
</linearGradient>
<linearGradient id="paint6_linear" x1="740.5" y1="999.5" x2="740.5" y2="1164" gradientUnits="userSpaceOnUse">
<stop stop-color="#FAF0E6"/>
<stop offset="1" stop-color="#FEFAF7"/>
</linearGradient>
<clipPath id="clip0">
<rect width="1440" height="1164" fill="white"/>
</clipPath>
</defs>
</svg>