<svg width="100%" height="511" viewBox="0 0 1440 511" fill="none" xmlns="http://www.w3.org/2000/svg">
<path d="M0 0H1440V510H0V0Z" fill="#111111"/>
<g clip-path="url(#clip0)">
<path d="M0 492.766V510.823H1442V447.749C1408.92 447.749 1382.7 447.749 1363.32 447.749C1334.26 447.749 1241.2 454.531 1188.55 458.213C1135.9 461.895 1064.51 466.392 1010.57 469.971C956.616 473.55 841.877 488.849 809.288 490.185C776.699 491.521 786.471 488.849 653.116 484.362C519.762 479.876 542.268 470.035 382.515 474.032C222.763 478.028 130.462 495.036 87.2881 497.074C58.5053 498.433 28.0759 496.478 0 492.766Z" fill="url(#paint0_linear)"/>
</g>
<defs>
<linearGradient id="paint0_linear" x1="721" y1="447.749" x2="721" y2="510.823" gradientUnits="userSpaceOnUse">
<stop stop-color="#FAF0E6"/>
<stop offset="1" stop-color="#FEFAF7"/>
</linearGradient>
<clipPath id="clip0">
<rect width="100%" height="64" fill="white" transform="translate(0 447)"/>
</clipPath>
</defs>
</svg>
